<svg xmlns="http://www.w3.org/2000/svg" xmlns:xlink="http://www.w3.org/1999/xlink" viewBox="0 0 135.467 135.467">
  <defs>
    <linearGradient gradientUnits="userSpaceOnUse" gradientTransform="matrix(1 0 0 -1 0 64)" y2="50.55" x2="54.32" y1="26.08" x1="40.19" id="a">
      <stop stop-color="#5281d0" offset="0"/>
      <stop stop-color="#9059ff" offset=".63"/>
      <stop stop-color="#d10782" offset="1"/>
    </linearGradient>
    <linearGradient gradientTransform="translate(-129.796 -189.415) scale(1.27627)" gradientUnits="userSpaceOnUse" y2="250.383" x2="146.68" y1="149.367" x1="111.086" id="b" xlink:href="#a"/>
  </defs>
  <path d="M78.363 110.706l-20.955 19.436m-20.746-22.726l20.746 22.726M22.72 69.578c18.414 17.899 25.587 19.58 30.595 27.353 4.355 6.76 4.013 17.373 4.093 33.211-.66-39.29 8.72-32.171 49.287-52.458m8.143-23.856c1.946 11.175-.855 20.257-8.143 23.856m-87.379-40.93c-10.3 17.724-.93 27.083 3.404 32.824m14.491-53.227c10.466 9.072 36.648 18.782 59.07 11.74M82.259 39.108c21.398-16.613 33.98-21.079 33.9-20.96 7.926 3.758 5.643 28.169-6.972 40.94M27.502 51.97C12.644 40.992 22.697 5.521 22.697 5.521c5.464-2.43 18.377 17.064 30.194 30.11" fill="none" stroke="url(#b)" stroke-width="7.474" stroke-linecap="round" stroke-linejoin="round"/>
</svg>
