<?xml version="1.0" encoding="UTF-8" standalone="no"?>
<svg
   xmlns:dc="http://purl.org/dc/elements/1.1/"
   xmlns:cc="http://creativecommons.org/ns#"
   xmlns:rdf="http://www.w3.org/1999/02/22-rdf-syntax-ns#"
   xmlns:svg="http://www.w3.org/2000/svg"
   xmlns="http://www.w3.org/2000/svg"
   xmlns:xlink="http://www.w3.org/1999/xlink"
   xmlns:sodipodi="http://sodipodi.sourceforge.net/DTD/sodipodi-0.dtd"
   xmlns:inkscape="http://www.inkscape.org/namespaces/inkscape"
   height="300"
   width="560"
   inkscape:version="1.0 (4035a4fb49, 2020-05-01)"
   inkscape:export-ydpi="96"
   inkscape:export-xdpi="96"
   inkscape:export-filename="\\wsl$\Ubuntu\home\sbe\git\sandsend\assets\send-twitter.png"
   sodipodi:docname="social.svg"
   id="svg14"
   version="1.1"
   viewBox="0 0 560 300.00001">
  <metadata
     id="metadata18">
    <rdf:RDF>
      <cc:Work
         rdf:about="">
        <dc:format>image/svg+xml</dc:format>
        <dc:type
           rdf:resource="http://purl.org/dc/dcmitype/StillImage" />
        <dc:title></dc:title>
      </cc:Work>
    </rdf:RDF>
  </metadata>
  <sodipodi:namedview
     inkscape:current-layer="svg14"
     inkscape:window-maximized="0"
     inkscape:window-y="30"
     inkscape:window-x="-7"
     inkscape:cy="259.12137"
     inkscape:cx="516.50899"
     inkscape:zoom="0.28643497"
     showgrid="false"
     id="namedview16"
     inkscape:window-height="830"
     inkscape:window-width="1817"
     inkscape:pageshadow="2"
     inkscape:pageopacity="1"
     guidetolerance="10"
     gridtolerance="10"
     objecttolerance="10"
     borderopacity="1"
     bordercolor="#666666"
     pagecolor="#f9f9fb" />
  <defs
     id="defs10">
    <linearGradient
       id="a"
       x1="40.189999"
       y1="26.08"
       x2="54.32"
       y2="50.549999"
       gradientTransform="matrix(1,0,0,-1,0,64)"
       gradientUnits="userSpaceOnUse">
      <stop
         id="stop2"
         offset="0"
         stop-color="#5281d0" />
      <stop
         id="stop4"
         offset=".63"
         stop-color="#9059ff" />
      <stop
         id="stop6"
         offset="1"
         stop-color="#d10782" />
    </linearGradient>
    <linearGradient
       xlink:href="#a"
       id="b"
       x1="111.086"
       y1="149.367"
       x2="146.67999"
       y2="250.383"
       gradientUnits="userSpaceOnUse"
       gradientTransform="matrix(0.59559266,0,0,0.59559266,73.832191,21.320491)" />
  </defs>
  <path
     sodipodi:nodetypes="cc"
     id="path881"
     d="M 262.11434,351.31227 C 320.16219,188.80502 425.24612,76.883743 598.22858,37.985418"
     style="fill:none;stroke:#ffffff;stroke-width:18.6489;stroke-linecap:round;stroke-linejoin:round;stroke-miterlimit:4;stroke-dasharray:none;stroke-opacity:1" />
  <path
     sodipodi:nodetypes="cc"
     id="path879"
     d="m 90.98325,-33.64207 c 117.32523,109.980305 347.81878,95.351373 474.1864,5.754689"
     style="fill:none;stroke:#ffffff;stroke-width:41.96;stroke-linecap:round;stroke-linejoin:round;stroke-miterlimit:4;stroke-dasharray:none;stroke-opacity:1" />
  <path
     sodipodi:nodetypes="cc"
     id="path875"
     d="M -68.997113,40.017953 C 49.941611,-16.263234 343.94597,155.71832 97.888877,333.50711"
     style="fill:none;stroke:#ffffff;stroke-width:27.9733;stroke-linecap:round;stroke-linejoin:round;stroke-miterlimit:4;stroke-dasharray:none;stroke-opacity:1" />
  <path
     style="stroke:url(#b)"
     id="path12"
     stroke-linejoin="round"
     stroke-linecap="round"
     stroke-width="3.48786"
     stroke="url(#b)"
     fill="none"
     d="m 170.97305,161.37695 -9.779,9.07014 m -9.68147,-10.60547 9.68147,10.60547 m -16.18774,-28.2632 c 8.59321,8.35287 11.94061,9.13733 14.27767,12.76473 2.03234,3.15466 1.87274,8.1074 1.91007,15.49847 -0.308,-18.33533 4.06934,-15.01314 23.0006,-24.48041 m 3.80007,-11.13279 c 0.90813,5.215 -0.399,9.45326 -3.80007,11.13279 m -40.77687,-19.10066 c -4.80666,8.2712 -0.43399,12.63874 1.58853,15.31787 m 6.76248,-24.83927 c 4.88413,4.2336 17.1024,8.76493 27.56599,5.47867 m -6.5436,5.14127 c 9.98574,-7.75274 15.85733,-9.83687 15.82001,-9.78134 3.69879,1.75373 2.6334,13.14553 -3.2536,19.10534 m -38.11967,-3.32174 c -6.93373,-5.12307 -2.24234,-21.6762 -2.24234,-21.6762 2.54987,-1.134 8.57594,7.9632 14.09054,14.05133" />
  <path
     sodipodi:nodetypes="cc"
     id="path877"
     d="M 422.45335,318.54491 C 432.71469,221.38567 480.6666,153.04862 595.09403,135.5458"
     style="fill:none;stroke:#ffffff;stroke-width:27.9733;stroke-linecap:round;stroke-linejoin:round;stroke-miterlimit:4;stroke-dasharray:none;stroke-opacity:1" />
  <g
     transform="matrix(0.95923558,0,0,0.95923558,133.67763,113.09998)"
     id="g859">
    <symbol
       id="a-9">
      <path
         fill="currentColor"
         d="m 97.508,15.58 c -2.448,0 -4.653,0.438 -6.617,1.314 -1.935,0.847 -3.462,2.041 -4.58,3.582 -1.088,1.512 -1.631,3.22 -1.631,5.124 0,1.722 0.377,3.187 1.133,4.396 0.785,1.209 2.01,2.221 3.671,3.037 1.693,0.816 3.946,1.512 6.756,2.086 2.509,0.514 4.246,1.059 5.213,1.633 0.997,0.574 1.496,1.329 1.496,2.266 0,1.239 -0.53,2.19 -1.588,2.855 -1.057,0.665 -2.583,0.998 -4.578,0.998 -1.602,0 -3.066,-0.18 -4.396,-0.543 -1.33,-0.393 -2.646,-0.998 -3.946,-1.814 -0.453,-0.272 -0.845,-0.453 -1.177,-0.543 a 2.546,2.546 0 0 0 -0.953,-0.182 c -0.605,0 -1.148,0.287 -1.631,0.861 A 3.126,3.126 0 0 0 84,42.644 c 0,0.575 0.09,1.059 0.271,1.452 0.212,0.362 0.545,0.71 0.999,1.043 1.3,1.027 2.976,1.828 5.03,2.402 2.056,0.544 4.277,0.816 6.665,0.816 2.569,0 4.82,-0.408 6.754,-1.224 1.964,-0.816 3.475,-1.965 4.533,-3.446 1.088,-1.48 1.633,-3.188 1.633,-5.123 0,-2.478 -0.908,-4.427 -2.72,-5.847 -1.784,-1.42 -4.73,-2.584 -8.84,-3.49 -1.754,-0.393 -3.114,-0.773 -4.08,-1.135 -0.938,-0.363 -1.617,-0.77 -2.04,-1.223 -0.393,-0.483 -0.59,-1.09 -0.59,-1.814 0,-1.24 0.528,-2.206 1.586,-2.9 1.058,-0.726 2.51,-1.089 4.354,-1.089 1.601,0 2.915,0.197 3.943,0.59 1.058,0.393 2.206,0.982 3.445,1.768 0.514,0.302 0.906,0.499 1.178,0.59 0.302,0.09 0.62,0.134 0.953,0.134 0.605,0 1.133,-0.287 1.586,-0.861 a 3.004,3.004 0 0 0 0.727,-1.994 c 0,-0.544 -0.107,-0.997 -0.319,-1.36 -0.181,-0.392 -0.497,-0.772 -0.95,-1.134 -2.781,-2.146 -6.319,-3.219 -10.61,-3.219 z m 112.222,0.047 c -2.266,0 -4.29,0.392 -6.074,1.178 -1.753,0.755 -3.127,1.843 -4.125,3.263 -0.967,1.39 -1.45,2.994 -1.45,4.807 0,1.904 0.483,3.444 1.45,4.623 0.998,1.179 2.282,2.086 3.854,2.72 1.602,0.635 3.64,1.239 6.119,1.813 1.843,0.423 3.308,0.832 4.396,1.225 1.088,0.393 1.966,0.92 2.631,1.586 0.665,0.634 0.996,1.481 0.996,2.539 0,1.843 -0.693,3.264 -2.084,4.262 -1.39,0.997 -3.385,1.496 -5.984,1.496 -3.596,0 -6.8,-1.09 -9.611,-3.266 -0.454,-0.332 -0.877,-0.498 -1.27,-0.498 -0.332,0 -0.62,0.166 -0.861,0.498 -0.242,0.302 -0.362,0.667 -0.362,1.09 0,0.634 0.227,1.163 0.68,1.586 1.24,1.148 2.886,2.07 4.942,2.765 2.085,0.665 4.26,0.996 6.527,0.996 2.297,0 4.336,-0.377 6.119,-1.132 1.783,-0.756 3.16,-1.814 4.127,-3.174 0.997,-1.36 1.496,-2.932 1.496,-4.715 0,-1.874 -0.53,-3.368 -1.588,-4.486 -1.027,-1.119 -2.327,-1.95 -3.898,-2.494 -1.572,-0.575 -3.732,-1.195 -6.483,-1.86 -2.538,-0.604 -4.427,-1.298 -5.666,-2.084 -1.209,-0.816 -1.814,-2.025 -1.814,-3.627 0,-1.874 0.696,-3.324 2.086,-4.351 1.39,-1.058 3.339,-1.588 5.847,-1.588 1.784,0 3.31,0.243 4.579,0.726 1.269,0.484 2.646,1.329 4.127,2.537 0.544,0.333 0.982,0.5 1.314,0.5 0.332,0 0.62,-0.15 0.861,-0.453 0.242,-0.332 0.362,-0.711 0.362,-1.134 0,-0.575 -0.241,-1.103 -0.725,-1.586 -1.24,-1.21 -2.781,-2.131 -4.625,-2.766 -1.813,-0.665 -3.777,-0.996 -5.893,-0.996 z m -21.548,0.135 c -0.998,0 -1.798,0.272 -2.403,0.816 -0.604,0.544 -0.906,1.27 -0.906,2.176 v 10.02 c -0.665,-1.15 -1.618,-2.042 -2.857,-2.676 -1.21,-0.635 -2.57,-0.952 -4.08,-0.952 -1.935,0 -3.64,0.468 -5.122,1.405 -1.48,0.937 -2.646,2.282 -3.492,4.035 -0.816,1.723 -1.222,3.732 -1.222,6.03 0,2.296 0.406,4.337 1.222,6.12 0.846,1.753 2.012,3.128 3.492,4.125 1.512,0.967 3.218,1.45 5.122,1.45 1.54,0 2.918,-0.317 4.126,-0.952 1.24,-0.665 2.191,-1.572 2.856,-2.72 v 0.363 c 0,0.967 0.302,1.753 0.906,2.357 0.635,0.575 1.467,0.862 2.494,0.862 1.028,0 1.843,-0.287 2.448,-0.862 0.634,-0.604 0.953,-1.39 0.953,-2.357 V 18.89 c 0,-0.937 -0.333,-1.694 -0.998,-2.268 -0.635,-0.574 -1.482,-0.861 -2.54,-0.861 z m 108.955,0 c -0.575,0 -1.03,0.165 -1.362,0.498 -0.302,0.302 -0.453,0.725 -0.453,1.27 v 12.15 c -0.665,-1.39 -1.645,-2.464 -2.945,-3.22 -1.27,-0.755 -2.766,-1.132 -4.488,-1.132 -1.935,0 -3.642,0.467 -5.123,1.404 -1.481,0.937 -2.63,2.268 -3.446,3.99 -0.816,1.723 -1.224,3.716 -1.224,5.983 0,2.297 0.408,4.323 1.224,6.076 0.816,1.723 1.965,3.066 3.446,4.033 1.48,0.967 3.188,1.452 5.123,1.452 1.722,0 3.219,-0.378 4.488,-1.133 1.3,-0.756 2.28,-1.829 2.945,-3.219 v 2.447 c 0,0.544 0.151,0.982 0.453,1.315 0.333,0.332 0.787,0.5 1.362,0.5 0.574,0 1.027,-0.168 1.36,-0.5 0.332,-0.333 0.497,-0.77 0.497,-1.315 V 17.53 c 0,-0.514 -0.165,-0.937 -0.498,-1.27 -0.332,-0.332 -0.785,-0.497 -1.36,-0.497 z m -171.729,9.384 c -1.48,0 -2.992,0.166 -4.533,0.498 -1.511,0.333 -2.796,0.786 -3.854,1.36 -0.604,0.332 -1.042,0.695 -1.314,1.088 -0.272,0.393 -0.408,0.891 -0.408,1.496 0,0.755 0.197,1.376 0.59,1.86 0.393,0.453 0.923,0.679 1.588,0.679 0.483,0 1.072,-0.166 1.767,-0.498 2.448,-0.907 4.322,-1.36 5.621,-1.36 1.3,0 2.222,0.288 2.766,0.862 0.574,0.574 0.861,1.494 0.861,2.763 v 0.817 h -1.18 c -3.203,0 -5.726,0.212 -7.57,0.635 -1.843,0.423 -3.189,1.104 -4.035,2.04 -0.816,0.938 -1.223,2.222 -1.223,3.854 0,1.33 0.346,2.537 1.041,3.625 0.726,1.088 1.694,1.935 2.903,2.54 1.239,0.604 2.614,0.905 4.125,0.905 1.42,0 2.659,-0.316 3.717,-0.95 1.057,-0.635 1.814,-1.511 2.267,-2.63 v 0.317 c 0,0.937 0.287,1.708 0.861,2.312 0.605,0.575 1.39,0.862 2.358,0.862 1.027,0 1.828,-0.273 2.402,-0.817 0.574,-0.574 0.862,-1.36 0.862,-2.357 V 34.803 c 0,-3.264 -0.786,-5.683 -2.358,-7.254 -1.571,-1.602 -3.99,-2.403 -7.254,-2.403 z m 29.737,0 c -1.572,0 -2.993,0.317 -4.262,0.952 -1.24,0.634 -2.252,1.556 -3.037,2.765 v -0.635 c 0,-0.876 -0.302,-1.586 -0.907,-2.13 -0.574,-0.575 -1.33,-0.862 -2.267,-0.862 -1.028,0 -1.872,0.287 -2.537,0.862 -0.635,0.574 -0.953,1.33 -0.953,2.267 v 16.637 c 0,0.997 0.301,1.783 0.906,2.357 0.635,0.575 1.481,0.862 2.539,0.862 1.058,0 1.89,-0.287 2.494,-0.862 0.605,-0.574 0.906,-1.36 0.906,-2.357 v -9.52 c 0,-1.51 0.424,-2.72 1.27,-3.627 0.876,-0.906 2.025,-1.359 3.445,-1.359 1.179,0 2.04,0.346 2.584,1.041 0.574,0.695 0.861,1.8 0.861,3.31 v 10.155 c 0,0.997 0.302,1.783 0.907,2.357 0.604,0.575 1.436,0.862 2.494,0.862 1.058,0 1.888,-0.287 2.492,-0.862 0.635,-0.574 0.953,-1.36 0.953,-2.357 V 34.529 c 0,-3.143 -0.65,-5.484 -1.949,-7.025 -1.3,-1.572 -3.28,-2.358 -5.94,-2.358 z m 81.707,0.182 c -2.025,0 -3.84,0.482 -5.442,1.45 -1.571,0.966 -2.795,2.326 -3.672,4.08 -0.876,1.722 -1.314,3.717 -1.314,5.984 0,3.566 0.983,6.362 2.947,8.386 1.995,2.025 4.7,3.038 8.115,3.038 1.149,0 2.327,-0.151 3.535,-0.454 a 14.376,14.376 0 0 0 3.446,-1.45 c 1.058,-0.635 1.588,-1.33 1.588,-2.085 0,-0.423 -0.122,-0.77 -0.364,-1.043 -0.241,-0.272 -0.528,-0.408 -0.86,-0.408 -0.273,0 -0.803,0.226 -1.589,0.68 -0.967,0.544 -1.872,0.982 -2.719,1.314 -0.846,0.302 -1.858,0.453 -3.037,0.453 -4.654,0 -7.118,-2.598 -7.39,-7.797 h 14.597 c 0.544,0 0.938,-0.136 1.18,-0.408 0.242,-0.272 0.361,-0.71 0.361,-1.314 0,-3.204 -0.844,-5.742 -2.537,-7.615 -1.692,-1.874 -3.974,-2.81 -6.845,-2.81 z m 26.9,0 c -1.662,0 -3.144,0.363 -4.443,1.088 -1.3,0.695 -2.312,1.722 -3.038,3.082 v -2.313 c 0,-0.513 -0.165,-0.937 -0.498,-1.27 -0.302,-0.332 -0.725,-0.497 -1.27,-0.497 -0.573,0 -1.026,0.165 -1.358,0.498 -0.333,0.332 -0.5,0.77 -0.5,1.314 v 19.131 c 0,0.574 0.167,1.03 0.5,1.362 0.332,0.302 0.785,0.453 1.359,0.453 0.574,0 1.012,-0.151 1.314,-0.453 0.333,-0.333 0.498,-0.788 0.498,-1.362 v -11.06 c 0,-2.116 0.606,-3.792 1.815,-5.032 1.209,-1.239 2.825,-1.859 4.85,-1.859 1.752,0 3.022,0.467 3.808,1.404 0.816,0.937 1.225,2.434 1.225,4.489 V 46.36 c 0,0.574 0.165,1.03 0.498,1.362 0.332,0.302 0.785,0.453 1.36,0.453 0.573,0 1.013,-0.151 1.315,-0.453 0.333,-0.333 0.499,-0.788 0.499,-1.362 V 34.076 c 0,-5.833 -2.645,-8.748 -7.934,-8.748 z m -26.856,2.856 c 1.904,0 3.386,0.603 4.444,1.812 1.058,1.179 1.615,2.887 1.676,5.123 h -12.828 c 0.211,-2.206 0.89,-3.914 2.039,-5.123 1.178,-1.209 2.735,-1.812 4.67,-1.812 z m 51.717,0.226 c 2.146,0 3.793,0.725 4.942,2.176 1.178,1.45 1.767,3.521 1.767,6.21 0,2.69 -0.589,4.776 -1.767,6.257 -1.149,1.45 -2.796,2.175 -4.942,2.175 -2.145,0 -3.822,-0.74 -5.031,-2.22 -1.179,-1.511 -1.768,-3.613 -1.768,-6.303 0,-2.63 0.59,-4.668 1.768,-6.12 1.209,-1.45 2.886,-2.175 5.031,-2.175 z m -108.681,1.95 c 1.601,0 2.825,0.544 3.672,1.632 0.876,1.088 1.314,2.658 1.314,4.713 0,2.055 -0.438,3.644 -1.314,4.762 -0.847,1.088 -2.07,1.63 -3.672,1.63 -1.602,0 -2.843,-0.559 -3.72,-1.677 -0.876,-1.149 -1.314,-2.75 -1.314,-4.805 0,-2.025 0.438,-3.565 1.315,-4.623 0.876,-1.088 2.117,-1.633 3.719,-1.633 z m -52.212,7.66 h 0.771 v 0.77 c 0,1.42 -0.408,2.584 -1.224,3.49 -0.816,0.877 -1.89,1.317 -3.22,1.317 -0.845,0 -1.556,-0.258 -2.13,-0.772 -0.544,-0.544 -0.816,-1.24 -0.816,-2.086 0,-1.027 0.484,-1.738 1.45,-2.13 0.998,-0.394 2.72,-0.589 5.169,-0.589 z"
         id="path843" />
    </symbol>
    <use
       height="100%"
       width="100%"
       y="0"
       x="0"
       xlink:href="#a-9"
       id="use846" />
  </g>
</svg>
