<svg xmlns="http://www.w3.org/2000/svg" xmlns:xlink="http://www.w3.org/1999/xlink">
  <symbol id="a">
    <path fill="currentColor" d="M97.508 15.58c-2.448 0-4.653.438-6.617 1.314-1.935.847-3.462 2.041-4.58 3.582-1.088 1.512-1.631 3.22-1.631 5.124 0 1.722.377 3.187 1.133 4.396.785 1.209 2.01 2.221 3.671 3.037 1.693.816 3.946 1.512 6.756 2.086 2.509.514 4.246 1.059 5.213 1.633.997.574 1.496 1.329 1.496 2.266 0 1.239-.53 2.19-1.588 2.855-1.057.665-2.583.998-4.578.998-1.602 0-3.066-.18-4.396-.543-1.33-.393-2.646-.998-3.946-1.814-.453-.272-.845-.453-1.177-.543a2.546 2.546 0 00-.953-.182c-.605 0-1.148.287-1.631.861a3.126 3.126 0 00-.68 1.994c0 .575.09 1.059.271 1.452.212.362.545.71.999 1.043 1.3 1.027 2.976 1.828 5.03 2.402 2.056.544 4.277.816 6.665.816 2.569 0 4.82-.408 6.754-1.224 1.964-.816 3.475-1.965 4.533-3.446 1.088-1.48 1.633-3.188 1.633-5.123 0-2.478-.908-4.427-2.72-5.847-1.784-1.42-4.73-2.584-8.84-3.49-1.754-.393-3.114-.773-4.08-1.135-.938-.363-1.617-.77-2.04-1.223-.393-.483-.59-1.09-.59-1.814 0-1.24.528-2.206 1.586-2.9 1.058-.726 2.51-1.089 4.354-1.089 1.601 0 2.915.197 3.943.59 1.058.393 2.206.982 3.445 1.768.514.302.906.499 1.178.59.302.09.62.134.953.134.605 0 1.133-.287 1.586-.861a3.004 3.004 0 00.727-1.994c0-.544-.107-.997-.319-1.36-.181-.392-.497-.772-.95-1.134-2.781-2.146-6.319-3.219-10.61-3.219zm112.222.047c-2.266 0-4.29.392-6.074 1.178-1.753.755-3.127 1.843-4.125 3.263-.967 1.39-1.45 2.994-1.45 4.807 0 1.904.483 3.444 1.45 4.623.998 1.179 2.282 2.086 3.854 2.72 1.602.635 3.64 1.239 6.119 1.813 1.843.423 3.308.832 4.396 1.225 1.088.393 1.966.92 2.631 1.586.665.634.996 1.481.996 2.539 0 1.843-.693 3.264-2.084 4.262-1.39.997-3.385 1.496-5.984 1.496-3.596 0-6.8-1.09-9.611-3.266-.454-.332-.877-.498-1.27-.498-.332 0-.62.166-.861.498-.242.302-.362.667-.362 1.09 0 .634.227 1.163.68 1.586 1.24 1.148 2.886 2.07 4.942 2.765 2.085.665 4.26.996 6.527.996 2.297 0 4.336-.377 6.119-1.132 1.783-.756 3.16-1.814 4.127-3.174.997-1.36 1.496-2.932 1.496-4.715 0-1.874-.53-3.368-1.588-4.486-1.027-1.119-2.327-1.95-3.898-2.494-1.572-.575-3.732-1.195-6.483-1.86-2.538-.604-4.427-1.298-5.666-2.084-1.209-.816-1.814-2.025-1.814-3.627 0-1.874.696-3.324 2.086-4.351 1.39-1.058 3.339-1.588 5.847-1.588 1.784 0 3.31.243 4.579.726 1.269.484 2.646 1.329 4.127 2.537.544.333.982.5 1.314.5.332 0 .62-.15.861-.453.242-.332.362-.711.362-1.134 0-.575-.241-1.103-.725-1.586-1.24-1.21-2.781-2.131-4.625-2.766-1.813-.665-3.777-.996-5.893-.996zm-21.548.135c-.998 0-1.798.272-2.403.816-.604.544-.906 1.27-.906 2.176v10.02c-.665-1.15-1.618-2.042-2.857-2.676-1.21-.635-2.57-.952-4.08-.952-1.935 0-3.64.468-5.122 1.405-1.48.937-2.646 2.282-3.492 4.035-.816 1.723-1.222 3.732-1.222 6.03 0 2.296.406 4.337 1.222 6.12.846 1.753 2.012 3.128 3.492 4.125 1.512.967 3.218 1.45 5.122 1.45 1.54 0 2.918-.317 4.126-.952 1.24-.665 2.191-1.572 2.856-2.72v.363c0 .967.302 1.753.906 2.357.635.575 1.467.862 2.494.862 1.028 0 1.843-.287 2.448-.862.634-.604.953-1.39.953-2.357V18.89c0-.937-.333-1.694-.998-2.268-.635-.574-1.482-.861-2.54-.861zm108.955 0c-.575 0-1.03.165-1.362.498-.302.302-.453.725-.453 1.27v12.15c-.665-1.39-1.645-2.464-2.945-3.22-1.27-.755-2.766-1.132-4.488-1.132-1.935 0-3.642.467-5.123 1.404-1.481.937-2.63 2.268-3.446 3.99-.816 1.723-1.224 3.716-1.224 5.983 0 2.297.408 4.323 1.224 6.076.816 1.723 1.965 3.066 3.446 4.033 1.48.967 3.188 1.452 5.123 1.452 1.722 0 3.219-.378 4.488-1.133 1.3-.756 2.28-1.829 2.945-3.219v2.447c0 .544.151.982.453 1.315.333.332.787.5 1.362.5.574 0 1.027-.168 1.36-.5.332-.333.497-.77.497-1.315V17.53c0-.514-.165-.937-.498-1.27-.332-.332-.785-.497-1.36-.497zm-171.729 9.384c-1.48 0-2.992.166-4.533.498-1.511.333-2.796.786-3.854 1.36-.604.332-1.042.695-1.314 1.088-.272.393-.408.891-.408 1.496 0 .755.197 1.376.59 1.86.393.453.923.679 1.588.679.483 0 1.072-.166 1.767-.498 2.448-.907 4.322-1.36 5.621-1.36 1.3 0 2.222.288 2.766.862.574.574.861 1.494.861 2.763v.817h-1.18c-3.203 0-5.726.212-7.57.635-1.843.423-3.189 1.104-4.035 2.04-.816.938-1.223 2.222-1.223 3.854 0 1.33.346 2.537 1.041 3.625.726 1.088 1.694 1.935 2.903 2.54 1.239.604 2.614.905 4.125.905 1.42 0 2.659-.316 3.717-.95 1.057-.635 1.814-1.511 2.267-2.63v.317c0 .937.287 1.708.861 2.312.605.575 1.39.862 2.358.862 1.027 0 1.828-.273 2.402-.817.574-.574.862-1.36.862-2.357V34.803c0-3.264-.786-5.683-2.358-7.254-1.571-1.602-3.99-2.403-7.254-2.403zm29.737 0c-1.572 0-2.993.317-4.262.952-1.24.634-2.252 1.556-3.037 2.765v-.635c0-.876-.302-1.586-.907-2.13-.574-.575-1.33-.862-2.267-.862-1.028 0-1.872.287-2.537.862-.635.574-.953 1.33-.953 2.267v16.637c0 .997.301 1.783.906 2.357.635.575 1.481.862 2.539.862s1.89-.287 2.494-.862c.605-.574.906-1.36.906-2.357v-9.52c0-1.51.424-2.72 1.27-3.627.876-.906 2.025-1.359 3.445-1.359 1.179 0 2.04.346 2.584 1.041.574.695.861 1.8.861 3.31v10.155c0 .997.302 1.783.907 2.357.604.575 1.436.862 2.494.862 1.058 0 1.888-.287 2.492-.862.635-.574.953-1.36.953-2.357V34.529c0-3.143-.65-5.484-1.949-7.025-1.3-1.572-3.28-2.358-5.94-2.358zm81.707.182c-2.025 0-3.84.482-5.442 1.45-1.571.966-2.795 2.326-3.672 4.08-.876 1.722-1.314 3.717-1.314 5.984 0 3.566.983 6.362 2.947 8.386 1.995 2.025 4.7 3.038 8.115 3.038 1.149 0 2.327-.151 3.535-.454a14.376 14.376 0 003.446-1.45c1.058-.635 1.588-1.33 1.588-2.085 0-.423-.122-.77-.364-1.043-.241-.272-.528-.408-.86-.408-.273 0-.803.226-1.589.68-.967.544-1.872.982-2.719 1.314-.846.302-1.858.453-3.037.453-4.654 0-7.118-2.598-7.39-7.797h14.597c.544 0 .938-.136 1.18-.408.242-.272.361-.71.361-1.314 0-3.204-.844-5.742-2.537-7.615-1.692-1.874-3.974-2.81-6.845-2.81zm26.9 0c-1.662 0-3.144.363-4.443 1.088-1.3.695-2.312 1.722-3.038 3.082v-2.313c0-.513-.165-.937-.498-1.27-.302-.332-.725-.497-1.27-.497-.573 0-1.026.165-1.358.498-.333.332-.5.77-.5 1.314v19.131c0 .574.167 1.03.5 1.362.332.302.785.453 1.359.453s1.012-.151 1.314-.453c.333-.333.498-.788.498-1.362v-11.06c0-2.116.606-3.792 1.815-5.032 1.209-1.239 2.825-1.859 4.85-1.859 1.752 0 3.022.467 3.808 1.404.816.937 1.225 2.434 1.225 4.489V46.36c0 .574.165 1.03.498 1.362.332.302.785.453 1.36.453.573 0 1.013-.151 1.315-.453.333-.333.499-.788.499-1.362V34.076c0-5.833-2.645-8.748-7.934-8.748zm-26.856 2.856c1.904 0 3.386.603 4.444 1.812 1.058 1.179 1.615 2.887 1.676 5.123h-12.828c.211-2.206.89-3.914 2.039-5.123 1.178-1.209 2.735-1.812 4.67-1.812zm51.717.226c2.146 0 3.793.725 4.942 2.176 1.178 1.45 1.767 3.521 1.767 6.21 0 2.69-.589 4.776-1.767 6.257-1.149 1.45-2.796 2.175-4.942 2.175-2.145 0-3.822-.74-5.031-2.22-1.179-1.511-1.768-3.613-1.768-6.303 0-2.63.59-4.668 1.768-6.12 1.209-1.45 2.886-2.175 5.031-2.175zm-108.681 1.95c1.601 0 2.825.544 3.672 1.632.876 1.088 1.314 2.658 1.314 4.713s-.438 3.644-1.314 4.762c-.847 1.088-2.07 1.63-3.672 1.63-1.602 0-2.843-.559-3.72-1.677-.876-1.149-1.314-2.75-1.314-4.805 0-2.025.438-3.565 1.315-4.623.876-1.088 2.117-1.633 3.719-1.633zM127.72 38.02h.771v.77c0 1.42-.408 2.584-1.224 3.49-.816.877-1.89 1.317-3.22 1.317-.845 0-1.556-.258-2.13-.772-.544-.544-.816-1.24-.816-2.086 0-1.027.484-1.738 1.45-2.13.998-.394 2.72-.589 5.169-.589z"/>
  </symbol>
  <use xlink:href="#a"/>
</svg>
